<svg width="150" height="24" viewBox="0 0 150 24" fill="none" xmlns="http://www.w3.org/2000/svg">
<path d="M8.37691 23.5307C6.70362 23.5307 5.23949 23.1751 3.98452 22.464C2.72955 21.7528 1.7465 20.7802 1.03535 19.5462C0.345116 18.2912 0 16.848 0 15.2165C0 13.3968 0.355574 11.849 1.06672 10.5731C1.79879 9.27635 2.74001 8.29329 3.8904 7.62397C5.0617 6.93374 6.29575 6.58862 7.59255 6.58862C8.5547 6.58862 9.48546 6.76641 10.3849 7.12198C11.2842 7.47756 12.0791 8.00046 12.7693 8.69069C13.4595 9.36001 14.0138 10.1757 14.4321 11.1379C14.8505 12.0791 15.0701 13.1354 15.091 14.3067C15.091 14.6413 14.9655 14.9237 14.7145 15.1538C14.4635 15.3839 14.1707 15.4989 13.836 15.4989H1.44321L0.878477 13.3341H12.9575L12.4556 13.7733V13.0831C12.3719 12.2255 12.0791 11.4935 11.5771 10.8869C11.096 10.2594 10.4999 9.77833 9.78875 9.44368C9.09851 9.10902 8.36645 8.94169 7.59255 8.94169C6.96507 8.94169 6.33759 9.05673 5.7101 9.2868C5.10353 9.49596 4.54926 9.85154 4.04727 10.3535C3.5662 10.8346 3.16879 11.4621 2.85505 12.236C2.56223 13.0099 2.41581 13.9406 2.41581 15.0283C2.41581 16.2414 2.65635 17.3081 3.13742 18.2284C3.63941 19.1488 4.32964 19.8808 5.20812 20.4246C6.08659 20.9475 7.11148 21.209 8.28279 21.209C9.01485 21.209 9.65279 21.1149 10.1966 20.9266C10.7404 20.7384 11.211 20.5083 11.6084 20.2364C12.0059 19.9436 12.3405 19.6507 12.6124 19.3579C12.8843 19.1697 13.1458 19.0756 13.3968 19.0756C13.7105 19.0756 13.9615 19.1801 14.1498 19.3893C14.3589 19.5985 14.4635 19.8494 14.4635 20.1423C14.4635 20.4978 14.2962 20.8116 13.9615 21.0835C13.3759 21.7319 12.581 22.3071 11.5771 22.8091C10.5731 23.2902 9.50638 23.5307 8.37691 23.5307Z" fill="white"/>
<path d="M28.3936 6.58862C29.8159 6.58862 30.9349 6.88145 31.7506 7.4671C32.5663 8.05275 33.1415 8.83711 33.4762 9.82017C33.8318 10.8032 34.0096 11.9013 34.0096 13.1145V21.9306C34.0096 22.2862 33.8841 22.5895 33.6331 22.8405C33.403 23.0914 33.1102 23.2169 32.7546 23.2169C32.399 23.2169 32.0957 23.0914 31.8447 22.8405C31.6147 22.5895 31.4996 22.2862 31.4996 21.9306V13.1772C31.4996 12.3824 31.3741 11.6712 31.1231 11.0438C30.8931 10.3954 30.4957 9.88291 29.9309 9.50642C29.3871 9.10902 28.6341 8.91031 27.672 8.91031C26.7935 8.91031 25.9882 9.10902 25.2562 9.50642C24.5241 9.88291 23.9384 10.3954 23.4992 11.0438C23.06 11.6712 22.8403 12.3824 22.8403 13.1772V21.9306C22.8403 22.2862 22.7149 22.5895 22.4639 22.8405C22.2338 23.0914 21.941 23.2169 21.5854 23.2169C21.2298 23.2169 20.9265 23.0914 20.6755 22.8405C20.4455 22.5895 20.3304 22.2862 20.3304 21.9306V8.25145C20.3304 7.89588 20.4455 7.60306 20.6755 7.37298C20.9265 7.12198 21.2298 6.99649 21.5854 6.99649C21.9619 6.99649 22.2652 7.12198 22.4952 7.37298C22.7253 7.60306 22.8403 7.89588 22.8403 8.25145V10.479L22.2129 11.1693C22.3174 10.6254 22.558 10.0816 22.9345 9.5378C23.311 8.97306 23.7816 8.47107 24.3463 8.03184C24.911 7.5926 25.5385 7.24748 26.2288 6.99649C26.919 6.72458 27.6406 6.58862 28.3936 6.58862Z" fill="white"/>
<path d="M39.1863 20.6443C38.9981 20.3724 38.9144 20.09 38.9353 19.7972C38.9562 19.4834 39.134 19.2115 39.4687 18.9814C39.6778 18.835 39.9184 18.7723 40.1903 18.7932C40.4831 18.8141 40.7446 18.9501 40.9746 19.201C41.5603 19.8913 42.2296 20.4456 42.9826 20.8639C43.7356 21.2613 44.6559 21.46 45.7435 21.46C46.2455 21.4391 46.7475 21.3554 47.2495 21.209C47.7515 21.0626 48.1698 20.8116 48.5045 20.456C48.86 20.0795 49.0378 19.588 49.0378 18.9814C49.0378 18.3958 48.86 17.9356 48.5045 17.601C48.1489 17.2454 47.6887 16.963 47.124 16.7539C46.5593 16.5238 45.9422 16.3251 45.2729 16.1578C44.5827 15.9695 43.9029 15.7603 43.2336 15.5303C42.5643 15.2793 41.9577 14.976 41.4139 14.6204C40.891 14.2439 40.4622 13.7838 40.1275 13.24C39.8138 12.6752 39.6569 11.9954 39.6569 11.2006C39.6569 10.2594 39.9079 9.44367 40.4099 8.75344C40.9328 8.06321 41.623 7.52985 42.4806 7.15336C43.3591 6.77687 44.3108 6.58862 45.3357 6.58862C45.9213 6.58862 46.5279 6.66183 47.1554 6.80824C47.8038 6.93374 48.4312 7.16382 49.0378 7.49847C49.6444 7.81222 50.1777 8.25146 50.6379 8.81619C50.8261 9.02535 50.9307 9.2868 50.9516 9.60055C50.9726 9.91429 50.8366 10.1967 50.5438 10.4476C50.3137 10.615 50.0522 10.6882 49.7594 10.6673C49.4875 10.6464 49.2574 10.5418 49.0692 10.3535C48.63 9.83062 48.0757 9.43322 47.4064 9.16131C46.758 8.86848 46.0364 8.72207 45.2415 8.72207C44.7396 8.72207 44.248 8.79528 43.767 8.94169C43.2859 9.0881 42.878 9.33909 42.5434 9.69467C42.2296 10.0293 42.0727 10.4999 42.0727 11.1065C42.0937 11.6712 42.2819 12.1314 42.6375 12.487C42.9931 12.8425 43.4741 13.1354 44.0807 13.3654C44.6873 13.5746 45.3566 13.7838 46.0886 13.9929C46.758 14.1603 47.3959 14.359 48.0025 14.589C48.63 14.7982 49.1947 15.0806 49.6967 15.4361C50.1987 15.7917 50.5961 16.2519 50.8889 16.8166C51.1817 17.3604 51.3281 18.0507 51.3281 18.8873C51.3281 19.8494 51.0562 20.6861 50.5124 21.3972C49.9686 22.0875 49.247 22.6208 48.3476 22.9973C47.4691 23.3529 46.5174 23.5307 45.4925 23.5307C44.3421 23.5307 43.2022 23.3111 42.0727 22.8718C40.9642 22.4326 40.002 21.6901 39.1863 20.6443Z" fill="white"/>
<path d="M143.286 23.5307C141.613 23.5307 140.149 23.1751 138.894 22.464C137.639 21.7528 136.656 20.7802 135.944 19.5462C135.254 18.2912 134.909 16.848 134.909 15.2165C134.909 13.3968 135.265 11.849 135.976 10.5731C136.708 9.27635 137.649 8.29329 138.799 7.62397C139.971 6.93374 141.205 6.58862 142.502 6.58862C143.464 6.58862 144.394 6.76641 145.294 7.12198C146.193 7.47756 146.988 8.00046 147.678 8.69069C148.369 9.36001 148.923 10.1757 149.341 11.1379C149.759 12.0791 149.979 13.1354 150 14.3067C150 14.6413 149.875 14.9237 149.624 15.1538C149.373 15.3839 149.08 15.4989 148.745 15.4989H136.352L135.788 13.3341H147.867L147.365 13.7733V13.0831C147.281 12.2255 146.988 11.4935 146.486 10.8869C146.005 10.2594 145.409 9.77833 144.698 9.44368C144.008 9.10902 143.275 8.94169 142.502 8.94169C141.874 8.94169 141.247 9.05673 140.619 9.2868C140.013 9.49596 139.458 9.85154 138.956 10.3535C138.475 10.8346 138.078 11.4621 137.764 12.236C137.471 13.0099 137.325 13.9406 137.325 15.0283C137.325 16.2414 137.565 17.3081 138.046 18.2284C138.548 19.1488 139.239 19.8808 140.117 20.4246C140.996 20.9475 142.021 21.209 143.192 21.209C143.924 21.209 144.562 21.1149 145.106 20.9266C145.649 20.7384 146.12 20.5083 146.517 20.2364C146.915 19.9436 147.25 19.6507 147.521 19.3579C147.793 19.1697 148.055 19.0756 148.306 19.0756C148.62 19.0756 148.871 19.1801 149.059 19.3893C149.268 19.5985 149.373 19.8494 149.373 20.1423C149.373 20.4978 149.205 20.8116 148.871 21.0835C148.285 21.7319 147.49 22.3071 146.486 22.8091C145.482 23.2902 144.415 23.5307 143.286 23.5307Z" fill="white"/>
<path d="M113.982 6.58858C115.405 6.58858 116.681 6.95461 117.81 7.68668C118.94 8.39782 119.828 9.38088 120.477 10.6358C121.146 11.8908 121.481 13.3445 121.481 14.9969C121.481 16.6492 121.146 18.1134 120.477 19.3892C119.828 20.6651 118.94 21.6796 117.81 22.4325C116.701 23.1646 115.447 23.5306 114.045 23.5306C113.271 23.5306 112.539 23.4156 111.849 23.1855C111.18 22.9345 110.563 22.6103 109.998 22.2129C109.454 21.7946 108.994 21.3449 108.617 20.8638C108.241 20.3618 107.969 19.8703 107.802 19.3892L108.492 18.95V22.0874C108.492 22.443 108.377 22.7463 108.147 22.9973C107.917 23.2483 107.613 23.3738 107.237 23.3738C106.881 23.3738 106.578 23.2587 106.327 23.0287C106.097 22.7777 105.982 22.4639 105.982 22.0874V1.28634C105.982 0.930767 106.097 0.627483 106.327 0.376489C106.578 0.125496 106.881 0 107.237 0C107.613 0 107.917 0.125496 108.147 0.376489C108.377 0.627483 108.492 0.930767 108.492 1.28634V10.9496L108.021 10.6986C108.168 10.1757 108.419 9.67371 108.774 9.19264C109.151 8.69065 109.6 8.25141 110.123 7.87492C110.667 7.47751 111.263 7.16377 111.912 6.93369C112.581 6.70362 113.271 6.58858 113.982 6.58858ZM113.7 8.91027C112.654 8.91027 111.723 9.17172 110.908 9.69462C110.113 10.2175 109.485 10.9391 109.025 11.8594C108.586 12.7798 108.366 13.8256 108.366 14.9969C108.366 16.1682 108.586 17.2244 109.025 18.1657C109.485 19.1069 110.113 19.8494 110.908 20.3932C111.723 20.937 112.654 21.209 113.7 21.209C114.746 21.209 115.666 20.937 116.461 20.3932C117.256 19.8494 117.883 19.1069 118.343 18.1657C118.804 17.2244 119.034 16.1682 119.034 14.9969C119.034 13.8256 118.804 12.7798 118.343 11.8594C117.883 10.9391 117.256 10.2175 116.461 9.69462C115.666 9.17172 114.746 8.91027 113.7 8.91027Z" fill="white"/>
<path d="M129.45 21.9306C129.45 22.2861 129.324 22.5894 129.073 22.8404C128.822 23.0914 128.519 23.2169 128.164 23.2169C127.808 23.2169 127.515 23.0914 127.285 22.8404C127.055 22.5894 126.94 22.2861 126.94 21.9306V1.25497C126.94 0.899393 127.055 0.606567 127.285 0.376489C127.536 0.125496 127.839 0 128.195 0C128.571 0 128.875 0.125496 129.105 0.376489C129.335 0.606567 129.45 0.899393 129.45 1.25497V21.9306Z" fill="white"/>
<path d="M63.9093 23.5307C62.236 23.5307 60.7718 23.1751 59.5169 22.464C58.2619 21.7528 57.2788 20.7802 56.5677 19.5462C55.8775 18.2912 55.5323 16.848 55.5323 15.2165C55.5323 13.3968 55.8879 11.849 56.5991 10.5731C57.3311 9.27635 58.2724 8.29329 59.4227 7.62397C60.5941 6.93374 61.8281 6.58862 63.1249 6.58862C64.087 6.58862 65.0178 6.76641 65.9172 7.12198C66.8166 7.47756 67.6114 8.00046 68.3016 8.69069C68.9919 9.36001 69.5462 10.1757 69.9645 11.1379C70.3828 12.0791 70.6024 13.1354 70.6233 14.3067C70.6233 14.6413 70.4978 14.9237 70.2468 15.1538C69.9958 15.3839 69.703 15.4989 69.3684 15.4989H56.9756L56.4108 13.3341H68.4899L67.9879 13.7733V13.0831C67.9042 12.2255 67.6114 11.4935 67.1094 10.8869C66.6284 10.2594 66.0322 9.77833 65.3211 9.44368C64.6309 9.10902 63.8988 8.94169 63.1249 8.94169C62.4974 8.94169 61.8699 9.05673 61.2425 9.2868C60.6359 9.49596 60.0816 9.85154 59.5796 10.3535C59.0985 10.8346 58.7011 11.4621 58.3874 12.236C58.0946 13.0099 57.9482 13.9406 57.9482 15.0283C57.9482 16.2414 58.1887 17.3081 58.6698 18.2284C59.1718 19.1488 59.862 19.8808 60.7405 20.4246C61.6189 20.9475 62.6438 21.209 63.8151 21.209C64.5472 21.209 65.1851 21.1149 65.729 20.9266C66.2728 20.7384 66.7434 20.5083 67.1408 20.2364C67.5382 19.9436 67.8729 19.6507 68.1448 19.3579C68.4167 19.1697 68.6781 19.0756 68.9291 19.0756C69.2429 19.0756 69.4939 19.1801 69.6821 19.3893C69.8913 19.5985 69.9959 19.8494 69.9959 20.1423C69.9959 20.4978 69.8285 20.8116 69.4939 21.0835C68.9082 21.7319 68.1134 22.3071 67.1094 22.8091C66.1054 23.2902 65.0387 23.5307 63.9093 23.5307Z" fill="white"/>
<path d="M83.6122 6.74548C85.0345 6.74548 86.1848 7.11152 87.0633 7.84358C87.9627 8.55473 88.5588 9.56916 88.8516 10.8869H88.381L88.6007 10.3221C88.8516 9.73649 89.2804 9.17175 89.887 8.62793C90.4936 8.08412 91.1943 7.63442 91.9891 7.27884C92.7839 6.92327 93.6101 6.74548 94.4676 6.74548C95.8481 6.74548 96.9357 7.04877 97.7305 7.65534C98.5254 8.24099 99.0901 9.0358 99.4247 10.0398C99.7803 11.0228 99.9581 12.1314 99.9581 13.3654V21.9306C99.9581 22.2862 99.8326 22.5895 99.5816 22.8404C99.3515 23.0914 99.0587 23.2169 98.7031 23.2169C98.3267 23.2169 98.0234 23.0914 97.7933 22.8404C97.5632 22.5895 97.4482 22.2862 97.4482 21.9306V13.4282C97.4482 12.6125 97.3227 11.8804 97.0717 11.232C96.8416 10.5627 96.4547 10.0398 95.9108 9.66328C95.3879 9.26588 94.6663 9.06717 93.746 9.06717C92.8885 9.06717 92.1041 9.26588 91.393 9.66328C90.6818 10.0398 90.1171 10.5627 89.6988 11.232C89.2804 11.8804 89.0713 12.6125 89.0713 13.4282V21.9306C89.0713 22.2862 88.9562 22.5895 88.7261 22.8404C88.4961 23.0914 88.1928 23.2169 87.8163 23.2169C87.4607 23.2169 87.1574 23.0914 86.9064 22.8404C86.6764 22.5895 86.5613 22.2862 86.5613 21.9306V13.3341C86.5613 12.5393 86.4463 11.8281 86.2162 11.2006C86.0071 10.5522 85.641 10.0398 85.1181 9.66328C84.5952 9.26588 83.8736 9.06717 82.9533 9.06717C82.1167 9.06717 81.3532 9.26588 80.663 9.66328C79.9728 10.0398 79.4185 10.5522 79.0002 11.2006C78.5818 11.8281 78.3727 12.5393 78.3727 13.3341V21.9306C78.3727 22.2862 78.2472 22.5895 77.9962 22.8404C77.7661 23.0914 77.4733 23.2169 77.1177 23.2169C76.7621 23.2169 76.4588 23.0914 76.2078 22.8404C75.9778 22.5895 75.8627 22.2862 75.8627 21.9306V8.25144C75.8627 7.89587 75.9778 7.60305 76.2078 7.37297C76.4588 7.12197 76.7621 6.99648 77.1177 6.99648C77.4942 6.99648 77.7975 7.12197 78.0276 7.37297C78.2576 7.60305 78.3727 7.89587 78.3727 8.25144V10.6359L77.6824 11.3889C77.7661 10.845 77.9753 10.3012 78.3099 9.75741C78.6655 9.21359 79.1152 8.7116 79.659 8.25144C80.2028 7.79129 80.8094 7.42526 81.4787 7.15335C82.148 6.88144 82.8592 6.74548 83.6122 6.74548Z" fill="white"/>
</svg>
